<svg width="134" height="134" viewBox="0 0 134 134" fill="none" xmlns="http://www.w3.org/2000/svg">
<path opacity="0.8" d="M72.0251 14.07L71.8576 14.4608L55.666 52.0367H39.7534C35.9568 52.0367 32.3834 52.7625 29.0334 54.2142L38.8043 30.8758L39.0276 30.3733L39.3626 29.48C39.5301 29.0892 39.6418 28.7542 39.8093 28.475C47.1235 11.5575 55.3868 7.70499 72.0251 14.07Z" fill="white"/>
<path d="M102.119 53.1533C99.6066 52.4275 96.9824 52.0367 94.2466 52.0367H55.6658L71.8574 14.4608L72.0249 14.07C72.8066 14.3492 73.6441 14.74 74.4816 15.0192L86.8208 20.2117C93.6883 23.0592 98.4899 26.0183 101.449 29.5917C101.952 30.2617 102.398 30.8758 102.845 31.6017C103.347 32.3833 103.738 33.165 103.962 34.0025C104.185 34.505 104.352 34.9517 104.464 35.4542C105.916 40.2 105.022 45.9508 102.119 53.1533Z" fill="white"/>
<path opacity="0.4" d="M121.493 79.2833V90.1708C121.493 91.2875 121.437 92.4042 121.382 93.465C120.321 113.007 109.433 122.833 88.7749 122.833H45.2249C43.8291 122.833 42.5449 122.722 41.2608 122.554C23.5058 121.382 14.0141 111.89 12.7858 94.135C12.6183 92.795 12.5066 91.5108 12.5066 90.1708V79.2833C12.5066 68.0609 19.3183 58.4017 29.0333 54.2142C32.3833 52.7625 35.9566 52.0367 39.7533 52.0367H94.2466C96.9824 52.0367 99.6066 52.4275 102.119 53.1534C113.286 56.5592 121.493 66.9442 121.493 79.2833Z" fill="white"/>
<path opacity="0.6" d="M38.8041 30.8759L29.0333 54.2142C19.3183 58.4017 12.5066 68.0609 12.5066 79.2834V62.9242C12.5066 47.0675 23.7849 33.835 38.8041 30.8759Z" fill="white"/>
<path opacity="0.6" d="M121.493 62.9242V79.2833C121.493 66.9442 113.286 56.5592 102.119 53.1533C105.022 45.9508 105.916 40.2 104.464 35.4542C104.352 34.9517 104.185 34.505 103.962 34.0025C114.402 39.4183 121.493 50.4175 121.493 62.9242Z" fill="white"/>
<path d="M80.9584 82.0191H71.1876V72.5833C71.1876 70.2941 69.2892 68.3958 67.0001 68.3958C64.7109 68.3958 62.8126 70.2941 62.8126 72.5833V82.0191H53.0417C50.7526 82.0191 48.8542 83.9175 48.8542 86.2066C48.8542 88.4958 50.7526 90.3941 53.0417 90.3941H62.8126V100.5C62.8126 102.789 64.7109 104.687 67.0001 104.687C69.2892 104.687 71.1876 102.789 71.1876 100.5V90.3941H80.9584C83.2476 90.3941 85.1459 88.4958 85.1459 86.2066C85.1459 83.9175 83.2476 82.0191 80.9584 82.0191Z" fill="white"/>
</svg>
