<svg width="24" height="24" viewBox="0 0 24 24" fill="none" xmlns="http://www.w3.org/2000/svg">
<path d="M8.40039 10.7999C8.40039 10.1634 8.65325 9.55293 9.10333 9.10285C9.55342 8.65276 10.1639 8.3999 10.8004 8.3999H18.0004C18.6369 8.3999 19.2474 8.65276 19.6974 9.10285C20.1475 9.55293 20.4004 10.1634 20.4004 10.7999V17.9999C20.4004 18.6364 20.1475 19.2469 19.6974 19.697C19.2474 20.147 18.6369 20.3999 18.0004 20.3999H10.8004C10.1639 20.3999 9.55342 20.147 9.10333 19.697C8.65325 19.2469 8.40039 18.6364 8.40039 17.9999V10.7999Z" fill="black" fill-opacity="0.6"/>
<path d="M5.99961 3.6001C5.36309 3.6001 4.75264 3.85295 4.30255 4.30304C3.85247 4.75313 3.59961 5.36358 3.59961 6.0001V13.2001C3.59961 13.8366 3.85247 14.4471 4.30255 14.8972C4.75264 15.3472 5.36309 15.6001 5.99961 15.6001V6.0001H15.5996C15.5996 5.36358 15.3468 4.75313 14.8967 4.30304C14.4466 3.85295 13.8361 3.6001 13.1996 3.6001H5.99961Z" fill="black" fill-opacity="0.6"/>
</svg>
