<svg width="30" height="30" viewBox="0 0 30 30" fill="none" xmlns="http://www.w3.org/2000/svg">
<path d="M15 27.5C21.9036 27.5 27.5 21.9036 27.5 15C27.5 8.09644 21.9036 2.5 15 2.5C8.09644 2.5 2.5 8.09644 2.5 15C2.5 21.9036 8.09644 27.5 15 27.5Z" fill="white"/>
<path d="M19.6879 13.4125V12.5C19.6879 11.3375 19.6879 7.8125 15.0004 7.8125C10.3129 7.8125 10.3129 11.3375 10.3129 12.5V13.4125C8.7879 13.75 8.27539 14.7375 8.27539 16.875V18.125C8.27539 20.875 9.1254 21.725 11.8754 21.725H18.1254C20.8754 21.725 21.7254 20.875 21.7254 18.125V16.875C21.7254 14.7375 21.2129 13.75 19.6879 13.4125ZM15.0004 18.875C14.2379 18.875 13.6254 18.2625 13.6254 17.5C13.6254 16.7375 14.2379 16.125 15.0004 16.125C15.7629 16.125 16.3754 16.7375 16.3754 17.5C16.3754 18.2625 15.7629 18.875 15.0004 18.875ZM17.8129 13.275H12.1879V12.5C12.1879 10.675 12.6379 9.6875 15.0004 9.6875C17.3629 9.6875 17.8129 10.675 17.8129 12.5V13.275Z" fill="#0A0A0C"/>
</svg>
