<svg width="48" height="48" viewBox="0 0 48 48" fill="none" xmlns="http://www.w3.org/2000/svg">
<circle cx="24" cy="24" r="24" fill="black" fill-opacity="0.04"/>
<path d="M23.4011 10.2607C23.7402 10.0891 24.1108 10 24.4862 10C24.8616 10 25.2323 10.0891 25.5714 10.2607L31.8619 13.7793C32.0205 13.8551 32.1593 13.971 32.2662 14.117C32.3731 14.2631 32.4449 14.4347 32.4752 14.6171V32.3022C32.4607 32.5011 32.3955 32.692 32.2867 32.8543C32.178 33.0167 32.0298 33.1444 31.858 33.2238L25.5674 36.7424C25.2278 36.912 24.8574 37 24.4823 37C24.1072 37 23.7368 36.912 23.3972 36.7424L17.1066 33.2238C16.937 33.1432 16.7913 33.0148 16.6853 32.8523C16.5793 32.6899 16.517 32.4997 16.5051 32.3022C16.5011 32.2745 16.5011 32.2462 16.5051 32.2185V14.7302C16.5012 14.7109 16.5012 14.6909 16.5051 14.6716V14.6087C16.5299 14.4248 16.599 14.2509 16.7059 14.104C16.8127 13.9572 16.9535 13.8424 17.1145 13.771L23.4011 10.2607ZM31.4805 24.5027L25.5832 27.816C25.2436 27.9857 24.8731 28.0737 24.498 28.0737C24.123 28.0737 23.7525 27.9857 23.4129 27.816L17.5155 24.5111V32.2687L23.4129 35.5527C23.7209 35.7641 24.066 35.9066 24.4273 35.9716H24.498C24.8578 35.9233 25.203 35.7902 25.5085 35.5821L31.4648 32.231L31.4805 24.5027ZM15.4908 31.9169C15.4622 32.4073 15.5374 32.8983 15.7109 33.3536C15.8613 33.6453 16.0827 33.8884 16.3518 34.0573C16.4265 34.1076 16.5051 34.1662 16.6034 34.2291L16.7213 34.3045L17.0791 34.5349L16.5837 35.4438L16.1906 35.1883L16.1198 35.1339C16.0019 35.0585 15.9075 34.9956 15.8171 34.9286C14.8617 34.2584 14.5 33.5128 14.5 31.9671V31.9169H15.4908ZM23.9909 19.7442C23.9459 19.7572 23.9024 19.7755 23.8611 19.7986L17.5706 23.3172L23.8611 26.8358C23.903 26.8586 23.9464 26.8782 23.9909 26.8945V19.7442ZM24.9816 19.7442V26.9238L25.1074 26.8652L31.398 23.3466L25.1074 19.828C25.0684 19.7954 25.0262 19.7673 24.9816 19.7442ZM31.4805 15.8654L25.8426 19.0279L31.4805 22.1821V15.8654ZM17.4998 15.8654V22.1486L23.1259 19.0028L17.4998 15.8654ZM25.1153 11.1865C24.9185 11.096 24.7065 11.0493 24.4921 11.0493C24.2778 11.0493 24.0658 11.096 23.869 11.1865L17.5784 14.7051L23.869 18.2237C24.0658 18.3141 24.2778 18.3608 24.4921 18.3608C24.7065 18.3608 24.9185 18.3141 25.1153 18.2237L31.4058 14.7051L25.1153 11.1865ZM32.4202 11.5718L32.8134 11.8274L32.8802 11.8734C32.9981 11.9488 33.0925 12.0117 33.1829 12.0787C34.1383 12.7573 34.4921 13.5029 34.5 15.0485V15.0988H33.5053C33.5358 14.6083 33.4605 14.1168 33.2851 13.6621C33.1348 13.3704 32.9134 13.1273 32.6443 12.9583C32.5696 12.9081 32.491 12.8494 32.3927 12.7866L32.2747 12.7112L31.9169 12.4808L32.4202 11.5718Z" fill="black" fill-opacity="0.15"/>
</svg>
