<svg width="48" height="48" viewBox="0 0 48 48" fill="none" xmlns="http://www.w3.org/2000/svg">
<circle cx="24" cy="24" r="24" fill="black" fill-opacity="0.04"/>
<path fill-rule="evenodd" clip-rule="evenodd" d="M38.5 24C38.5 31.732 32.232 38 24.5 38C16.768 38 10.5 31.732 10.5 24C10.5 16.268 16.768 10 24.5 10C32.232 10 38.5 16.268 38.5 24ZM20.5328 29.571H17.8158C17.2449 29.571 16.9629 29.571 16.7909 29.461C16.6052 29.3406 16.4917 29.1411 16.4779 28.921C16.4676 28.7181 16.6086 28.4704 16.8907 27.9752L23.5993 16.1503C23.8847 15.6482 24.0292 15.3971 24.2115 15.3042C24.4075 15.2045 24.6414 15.2045 24.8374 15.3042C25.0197 15.3971 25.1642 15.6482 25.4496 16.1503L26.8288 18.5578L26.8358 18.5701C27.1441 19.1088 27.3005 19.3819 27.3687 19.6687C27.4444 19.9816 27.4444 20.3118 27.3687 20.6248C27.3 20.9137 27.1452 21.1888 26.8322 21.7357L23.3083 27.9649L23.2992 27.9808C22.9888 28.524 22.8316 28.7992 22.6136 29.007C22.3763 29.234 22.0908 29.399 21.7779 29.4919C21.4924 29.571 21.1725 29.571 20.5328 29.571ZM27.3942 29.5713H31.2874C31.8618 29.5713 32.1507 29.5713 32.3226 29.4578C32.5083 29.3374 32.6253 29.1345 32.6356 28.9144C32.6456 28.7182 32.5076 28.4801 32.2373 28.0137C32.228 27.9978 32.2187 27.9816 32.2091 27.9652L30.2591 24.6291L30.2369 24.5916C29.9629 24.1281 29.8245 23.8941 29.6469 23.8037C29.4508 23.7039 29.2204 23.7039 29.0244 23.8037C28.8455 23.8965 28.7011 24.1407 28.4156 24.6325L26.4725 27.9686L26.4658 27.9801C26.1813 28.4711 26.0392 28.7165 26.0494 28.9179C26.0632 29.138 26.1767 29.3409 26.3624 29.4613C26.5309 29.5713 26.8198 29.5713 27.3942 29.5713Z" fill="black" fill-opacity="0.15"/>
</svg>
