<svg width="48" height="48" viewBox="0 0 48 48" fill="none" xmlns="http://www.w3.org/2000/svg">
<circle cx="24" cy="24" r="24" fill="black" fill-opacity="0.04"/>
<path d="M30.7517 13C28.13 13 26.0217 15.1136 26.0033 17.7419V22.9983C25.5083 23.0351 25.0133 23.0535 24.5 23.0535C23.9867 23.0535 23.4917 23.0718 22.9967 23.1086V17.7419C22.96 15.1504 20.8517 13.0551 18.2483 13.0551C15.645 13.0551 13.5367 15.132 13.5 17.7419V30.3133C13.5367 32.9048 15.645 35 18.2483 35C20.8517 35 22.96 32.9231 22.9967 30.3133V25.0568C23.4917 25.0201 23.9867 25.0017 24.5 25.0017C25.0133 25.0017 25.5083 24.9833 26.0033 24.9465V30.3133C26.04 32.9048 28.1483 35 30.7517 35C33.355 35 35.4633 32.9231 35.5 30.3133V17.7419C35.4817 15.132 33.355 13 30.7517 13ZM18.2483 14.9482C19.7883 14.9482 21.0533 16.198 21.0533 17.7419V23.3108C19.66 23.5129 18.3033 23.8989 17.02 24.4503C16.47 24.6892 15.9383 25.0017 15.4617 25.3876V17.7419C15.4433 16.198 16.7083 14.9482 18.2483 14.9482ZM21.035 30.3133C21.035 31.8571 19.7883 33.1253 18.23 33.1253C16.6717 33.1253 15.425 31.8755 15.425 30.3133V29.0451C15.425 27.924 16.305 26.8764 17.7717 26.2147C18.8167 25.7736 19.8983 25.4428 21.0167 25.259V30.3133H21.035ZM30.7517 33.1069C29.2117 33.1069 27.9467 31.8571 27.9467 30.3133V24.7444C29.34 24.5422 30.6967 24.1562 31.98 23.6048C32.53 23.3659 33.0617 23.0535 33.5383 22.6675V30.3133C33.5383 31.8571 32.2917 33.1069 30.7517 33.1069ZM31.1917 21.8221C30.1467 22.2632 29.065 22.594 27.9467 22.7778V17.7419C27.9467 16.198 29.1933 14.9298 30.7517 14.9298C32.31 14.9298 33.5567 16.1796 33.5567 17.7419V19.01C33.5383 20.1128 32.6583 21.1788 31.1917 21.8221Z" fill="black" fill-opacity="0.15"/>
</svg>
