<svg width="48" height="48" viewBox="0 0 48 48" fill="none" xmlns="http://www.w3.org/2000/svg">
<path d="M30.1723 19.4543C29.7337 19.2037 29.1697 19.2037 28.6684 19.4543L25.1593 21.5222L22.7781 22.8381L19.3316 24.906C18.893 25.1567 18.329 25.1567 17.8277 24.906L15.1332 23.2768C14.6945 23.0261 14.3812 22.5248 14.3812 21.9608V18.8277C14.3812 18.3264 14.6319 17.8251 15.1332 17.5117L17.8277 15.9452C18.2663 15.6945 18.8303 15.6945 19.3316 15.9452L22.0261 17.5744C22.4648 17.8251 22.7781 18.3264 22.7781 18.8903V20.9582L25.1593 19.5796V17.4491C25.1593 16.9478 24.9086 16.4465 24.4073 16.1332L19.3943 13.188C18.9556 12.9373 18.3916 12.9373 17.8903 13.188L12.752 16.1958C12.2507 16.4465 12 16.9478 12 17.4491V23.3394C12 23.8407 12.2507 24.342 12.752 24.6554L17.8277 27.6005C18.2663 27.8512 18.8303 27.8512 19.3316 27.6005L22.7781 25.5953L25.1593 24.2167L28.6057 22.2115C29.0444 21.9608 29.6084 21.9608 30.1097 22.2115L32.8042 23.7781C33.2428 24.0287 33.5561 24.53 33.5561 25.094V28.2272C33.5561 28.7285 33.3055 29.2298 32.8042 29.5431L30.1723 31.1097C29.7337 31.3603 29.1697 31.3603 28.6684 31.1097L25.9739 29.5431C25.5352 29.2924 25.2219 28.7911 25.2219 28.2272V26.2219L22.8407 27.6005V29.6684C22.8407 30.1697 23.0914 30.671 23.5927 30.9843L28.6684 33.9295C29.107 34.1802 29.671 34.1802 30.1723 33.9295L35.248 30.9843C35.6867 30.7337 36 30.2324 36 29.6684V23.7154C36 23.2141 35.7493 22.7128 35.248 22.3995L30.1723 19.4543Z" fill="black" fill-opacity="0.15"/>
<circle cx="24" cy="24" r="24" fill="black" fill-opacity="0.04"/>
</svg>
