<svg width="24" height="24" viewBox="0 0 24 24" fill="none" xmlns="http://www.w3.org/2000/svg">
<path d="M21.5 12C21.5 17.2467 17.2467 21.5 12 21.5C6.75329 21.5 2.5 17.2467 2.5 12C2.5 6.75329 6.75329 2.5 12 2.5C17.2467 2.5 21.5 6.75329 21.5 12Z" fill="white" stroke="white"/>
<path d="M15.5299 10.88V10.15C15.5299 9.21999 15.5299 6.39999 11.7799 6.39999C8.02991 6.39999 8.02991 9.21999 8.02991 10.15V10.88C6.80991 11.15 6.3999 11.94 6.3999 13.65V14.65C6.3999 16.85 7.07991 17.53 9.27991 17.53H14.2799C16.4799 17.53 17.1599 16.85 17.1599 14.65V13.65C17.1599 11.94 16.7499 11.15 15.5299 10.88ZM11.7799 15.25C11.1699 15.25 10.6799 14.76 10.6799 14.15C10.6799 13.54 11.1699 13.05 11.7799 13.05C12.3899 13.05 12.8799 13.54 12.8799 14.15C12.8799 14.76 12.3899 15.25 11.7799 15.25ZM14.0299 10.77H9.52991V10.15C9.52991 8.68999 9.88991 7.89999 11.7799 7.89999C13.6699 7.89999 14.0299 8.68999 14.0299 10.15V10.77Z" fill="#F3BD07"/>
</svg>
