<svg width="25" height="24" viewBox="0 0 25 24" fill="none" xmlns="http://www.w3.org/2000/svg">
<path d="M12.4902 2C6.98023 2 2.49023 6.49 2.49023 12C2.49023 17.51 6.98023 22 12.4902 22C18.0002 22 22.4902 17.51 22.4902 12C22.4902 6.49 18.0002 2 12.4902 2ZM17.2702 9.7L11.6002 15.37C11.4602 15.51 11.2702 15.59 11.0702 15.59C10.8702 15.59 10.6802 15.51 10.5402 15.37L7.71023 12.54C7.42023 12.25 7.42023 11.77 7.71023 11.48C8.00023 11.19 8.48023 11.19 8.77023 11.48L11.0702 13.78L16.2102 8.64C16.5002 8.35 16.9802 8.35 17.2702 8.64C17.5602 8.93 17.5602 9.4 17.2702 9.7Z" fill="#6BDC11"/>
</svg>
