<svg width="30" height="30" viewBox="0 0 30 30" fill="none" xmlns="http://www.w3.org/2000/svg">
<path d="M15 27.5C21.9036 27.5 27.5 21.9036 27.5 15C27.5 8.09644 21.9036 2.5 15 2.5C8.09644 2.5 2.5 8.09644 2.5 15C2.5 21.9036 8.09644 27.5 15 27.5Z" fill="white"/>
<path d="M19.6874 13.4125V12.5C19.6874 11.3375 19.6874 7.8125 14.9999 7.8125C10.3124 7.8125 10.3124 11.3375 10.3124 12.5V13.4125C8.78741 13.75 8.2749 14.7375 8.2749 16.875V18.125C8.2749 20.875 9.12491 21.725 11.8749 21.725H18.1249C20.8749 21.725 21.7249 20.875 21.7249 18.125V16.875C21.7249 14.7375 21.2124 13.75 19.6874 13.4125ZM14.9999 18.875C14.2374 18.875 13.6249 18.2625 13.6249 17.5C13.6249 16.7375 14.2374 16.125 14.9999 16.125C15.7624 16.125 16.3749 16.7375 16.3749 17.5C16.3749 18.2625 15.7624 18.875 14.9999 18.875ZM17.8124 13.275H12.1874V12.5C12.1874 10.675 12.6374 9.6875 14.9999 9.6875C17.3624 9.6875 17.8124 10.675 17.8124 12.5V13.275Z" fill="#0A0A0C"/>
</svg>
