<svg width="30" height="30" viewBox="0 0 30 30" fill="none" xmlns="http://www.w3.org/2000/svg">
<path opacity="0.4" d="M7.17495 20C7.31245 19.3875 7.06245 18.5125 6.62495 18.075L3.58745 15.0375C2.63745 14.0875 2.26245 13.075 2.53745 12.2C2.82495 11.325 3.71245 10.725 5.03745 10.5L8.93745 9.85C9.49995 9.75 10.1874 9.25 10.4499 8.7375L12.5999 4.425C13.2249 3.1875 14.0749 2.5 14.9999 2.5C15.9249 2.5 16.7749 3.1875 17.3999 4.425L19.5499 8.7375C19.7124 9.0625 20.0499 9.375 20.4124 9.5875L6.94995 23.05C6.77495 23.225 6.47495 23.0625 6.52495 22.8125L7.17495 20Z" fill="url(#paint0_radial_9_1550)"/>
<path d="M23.375 18.075C22.925 18.525 22.675 19.3875 22.825 20L23.6875 23.7625C24.05 25.325 23.825 26.5 23.05 27.0625C22.7375 27.2875 22.3625 27.4 21.925 27.4C21.2875 27.4 20.5375 27.1625 19.7125 26.675L16.05 24.5C15.475 24.1625 14.525 24.1625 13.95 24.5L10.2875 26.675C8.9 27.4875 7.7125 27.625 6.95 27.0625C6.6625 26.85 6.45 26.5625 6.3125 26.1875L21.5125 10.9875C22.0875 10.4125 22.9 10.15 23.6875 10.2875L24.95 10.5C26.275 10.725 27.1625 11.325 27.45 12.2C27.725 13.075 27.35 14.0875 26.4 15.0375L23.375 18.075Z" fill="url(#paint1_radial_9_1550)"/>
<defs>
<radialGradient id="paint0_radial_9_1550" cx="0" cy="0" r="1" gradientUnits="userSpaceOnUse" gradientTransform="translate(11.431 2.5) rotate(90) scale(20.6232 17.963)">
<stop offset="0.144704" stop-color="#FFFB9D"/>
<stop offset="0.500728" stop-color="#FFD912"/>
<stop offset="1" stop-color="#EBA900"/>
</radialGradient>
<radialGradient id="paint1_radial_9_1550" cx="0" cy="0" r="1" gradientUnits="userSpaceOnUse" gradientTransform="translate(16.9252 10.2516) rotate(90) scale(17.1516 21.2255)">
<stop offset="0.144704" stop-color="#FFFB9D"/>
<stop offset="0.500728" stop-color="#FFD912"/>
<stop offset="1" stop-color="#EBA900"/>
</radialGradient>
</defs>
</svg>
